PathFileType	4	(X/Y/Z)	/Users/itak/Documents/Research/Walk-IL/dataset/trc/00409_00012.trc
DataRate	CameraRate	NumFrames	NumMarkers	Units	OrigDataRate	OrigDataStartFrame	OrigNumFrames
100.000000	100.000000	4	56	mm	100.000000	166	667
Frame#	Time	RPSI			LPSI			L3			STRN			T10			C7			CLAV			RBAK			LBAK			LSHO			LUPA			LAEL			LAOL			LWTS			LWPS			LFRA			LHPS			LHTS			RSHO			RUPA			RAEL			RAOL			RWTS			RWPS			RFRA			RIFD			RHTS			RHPS			RBHD			LFHD			RFHD			LBHD			LHIP			RHIP			RASI			LASI			LKNE			LTHI			LANK			LTIP			LTOE			LMT1			LMT5			LHEE			RKNE			RTHI			RANK			RTIP			RTOE			RMT5			RHEE			LIFD			RMT1			*53			*54			*55			
		X1	Y1	Z1	X2	Y2	Z2	X3	Y3	Z3	X4	Y4	Z4	X5	Y5	Z5	X6	Y6	Z6	X7	Y7	Z7	X8	Y8	Z8	X9	Y9	Z9	X10	Y10	Z10	X11	Y11	Z11	X12	Y12	Z12	X13	Y13	Z13	X14	Y14	Z14	X15	Y15	Z15	X16	Y16	Z16	X17	Y17	Z17	X18	Y18	Z18	X19	Y19	Z19	X20	Y20	Z20	X21	Y21	Z21	X22	Y22	Z22	X23	Y23	Z23	X24	Y24	Z24	X25	Y25	Z25	X26	Y26	Z26	X27	Y27	Z27	X28	Y28	Z28	X29	Y29	Z29	X30	Y30	Z30	X31	Y31	Z31	X32	Y32	Z32	X33	Y33	Z33	X34	Y34	Z34	X35	Y35	Z35	X36	Y36	Z36	X37	Y37	Z37	X38	Y38	Z38	X39	Y39	Z39	X40	Y40	Z40	X41	Y41	Z41	X42	Y42	Z42	X43	Y43	Z43	X44	Y44	Z44	X45	Y45	Z45	X46	Y46	Z46	X47	Y47	Z47	X48	Y48	Z48	X49	Y49	Z49	X50	Y50	Z50	X51	Y51	Z51	X52	Y52	Z52	X53	Y53	Z53	X54	Y54	Z54	X55	Y55	Z55	X56	Y56	Z56	

167	1.66	-637.2098999023438	936.3004150390625	779.8739013671875	-748.1727905273438	945.0894775390625	854.0565795898438	-682.4992065429688	1022.637145996094	808.80859375	-796.097900390625	1181.163452148438	598.4950561523438	-674.2456665039062	1124.925048828125	813.2589721679688	-685.534423828125	1375.080688476562	784.7468872070312	-763.23779296875	1300.072998046875	643.9945068359375	-611.7465209960938	1225.998657226562	787.5744018554688	-768.2457885742188	1342.201538085938	848.4724731445312	-853.7637329101562	1360.997680664062	799.9258422851562	-902.4806518554688	1253.898315429688	869.3767700195312	-938.3409423828125	1058.596435546875	895.4988403320312	-856.3145751953125	1037.591186523438	912.4622192382812	-944.6000366210938	831.8936157226562	822.0650024414062	-982.2490234375	831.945068359375	895.6339721679688	-958.1923828125	955.337890625	900.2267456054688	-979.6510620117188	745.4464721679688	897.6719360351562	-967.9220581054688	733.6862182617188	835.8587036132812	-579.3202514648438	1351.938842773438	656.9719848632812	-520.9365234375	1286.070068359375	642.5155639648438	-488.5735168457031	1024.470703125	610.9449462890625	-559.7522583007812	1010.428649902344	673.524658203125	-616.791748046875	868.2244262695312	464.0528869628906	-546.1080322265625	844.4274291992188	458.8882446289062	-495.9263916015625	970.482421875	566.4995727539062	-641.1039428710938	705.3546752929688	403.8323974609375	-627.5155029296875	777.3720703125	404.9394226074219	-564.1337280273438	764.40771484375	428.2979736328125	-615.884765625	1553.068969726562	727.2177124023438	-794.5547485351562	1581.351196289062	645.7077026367188	-677.9703369140625	1571.78564453125	609.99072265625	-763.7037353515625	1562.479614257812	790.3932495117188	-891.176025390625	957.0296020507812	834.8096923828125	-586.6154174804688	906.6001586914062	649.5234985351562	-700.4890747070312	921.3837890625	563.9583740234375	-911.94091796875	954.3538818359375	714.9907836914062	-999.6841430664062	490.0922546386719	663.8184204101562	-977.7460327148438	620.90283203125	717.5598754882812	-975.795654296875	42.38891983032227	745.06787109375	-1004.107360839844	254.3684692382812	703.3770141601562	-1003.552795410156	44.71854400634766	522.165771484375	-943.9934692382812	44.85851287841797	582.616943359375	-1038.932861328125	40.93524551391602	633.6332397460938	-910.3328247070312	39.65750122070312	755.4257202148438	-689.5232543945312	423.9045104980469	639.900146484375	-663.0314331054688	672.7374877929688	595.3668823242188	-494.5469665527344	168.3295288085938	925.4318237304688	-657.696533203125	320.7545166015625	706.3201904296875	-616.5465087890625	38.13723754882812	948.5578002929688	-523.497314453125	85.19908142089844	916.8519897460938	-492.2837524414062	235.0510101318359	986.45458984375	-942.903076171875	656.189697265625	866.7847290039062	-600.5003662109375	102.2448883056641	980.9153442382812	nan	nan	nan	nan	nan	nan	nan	nan	nan	
168	1.67	-644.5667724609375	937.2805786132812	774.5300903320312	-756.625244140625	947.0572509765625	846.9088134765625	-690.5496826171875	1024.676025390625	802.078125	-801.083740234375	1182.201538085938	589.46435546875	-683.5371704101562	1126.42236328125	804.92822265625	-694.1722412109375	1376.802001953125	777.357177734375	-769.1582641601562	1301.265380859375	635.2521362304688	-620.3931884765625	1227.685424804688	781.8900146484375	-778.1848754882812	1344.081420898438	839.6826171875	-862.6099853515625	1362.517822265625	789.2415161132812	-913.61962890625	1255.443237304688	857.1742553710938	-951.6890869140625	1060.229736328125	881.5576171875	-870.2656860351562	1038.613891601562	900.9572143554688	-957.779541015625	834.8630981445312	804.7364501953125	-997.40185546875	834.0941162109375	877.2882690429688	-972.2597045898438	956.9818725585938	884.5741577148438	-995.8912963867188	747.5567016601562	877.9732055664062	-982.7215576171875	736.7307739257812	816.2398681640625	-585.4750366210938	1353.298706054688	651.6376953125	-526.8563842773438	1287.300537109375	638.3858032226562	-494.5500183105469	1025.347412109375	608.563720703125	-566.3812255859375	1011.907775878906	670.1763916015625	-618.7611083984375	864.6978759765625	462.8341979980469	-547.6639404296875	841.4862670898438	459.6146850585938	-500.8493957519531	970.4130249023438	565.0035400390625	-640.3414916992188	700.1785278320312	406.2693176269531	-627.412109375	772.2774047851562	405.8349609375	-564.6541748046875	760.4782104492188	430.7727661132812	-623.1947631835938	1554.352905273438	721.1740112304688	-800.0993041992188	1583.076171875	636.2327270507812	-682.9125366210938	1573.2841796875	602.7604370117188	-772.157958984375	1564.0654296875	781.5173950195312	-899.3436279296875	958.880859375	825.55029296875	-592.089111328125	907.3645629882812	644.1561279296875	-704.9907836914062	922.4105834960938	557.6773071289062	-918.5758666992188	955.4461059570312	705.692626953125	-1003.281372070312	489.11328125	659.5437622070312	-982.6896362304688	621.01708984375	711.7689208984375	-975.8008422851562	42.36777496337891	745.0845947265625	-1005.804382324219	253.87646484375	701.4982299804688	-1003.574768066406	44.7669792175293	522.1875	-943.8937377929688	44.86502075195312	582.6085815429688	-1038.936767578125	41.07073211669922	633.71728515625	-910.3658447265625	39.71855545043945	755.5003662109375	-702.2493286132812	425.5549621582031	622.5902709960938	-670.2819213867188	674.3873291015625	585.6260986328125	-509.1309204101562	175.6983184814453	912.595458984375	-671.4571533203125	323.262939453125	689.8856201171875	-628.0936889648438	39.83472061157227	930.4520874023438	-535.4026489257812	92.45526123046875	902.3896484375	-509.4804992675781	241.8514099121094	974.1531372070312	-959.6598510742188	658.4015502929688	846.5142822265625	-615.2726440429688	107.3145294189453	965.1239624023438	nan	nan	nan	nan	nan	nan	nan	nan	nan	
169	1.68	-651.7364501953125	938.6198120117188	769.2669677734375	-764.8568725585938	949.1843872070312	839.8412475585938	-698.4315795898438	1026.922485351562	795.3521728515625	-805.8138427734375	1183.375122070312	580.4510498046875	-692.5897216796875	1128.164306640625	796.8546752929688	-702.6005859375	1378.69140625	769.9120483398438	-774.8509521484375	1302.599731445312	626.5396118164062	-628.8441772460938	1229.575927734375	776.247314453125	-787.7589721679688	1346.132568359375	830.8887329101562	-871.1663818359375	1364.184692382812	778.5610961914062	-924.365234375	1257.1455078125	844.9577026367188	-964.6995849609375	1062.07958984375	867.4542236328125	-883.961669921875	1039.779907226562	889.2401733398438	-970.6547241210938	838.1318359375	787.1654663085938	-1012.2109375	836.5931396484375	858.6552734375	-985.9879760742188	958.8911743164062	868.6686401367188	-1011.993835449219	750.1494750976562	857.8314208984375	-997.4141845703125	740.2059326171875	796.2095336914062	-591.4395751953125	1354.784057617188	646.30078125	-532.642333984375	1288.656005859375	634.2952270507812	-500.3472900390625	1026.360107421875	606.339111328125	-572.9187622070312	1013.536987304688	666.9262084960938	-620.4913330078125	861.3621215820312	461.9257507324219	-549.0372314453125	838.7416381835938	460.7174682617188	-505.6205749511719	970.5060424804688	563.7085571289062	-639.4375610351562	695.3206787109375	409.1236572265625	-627.1852416992188	767.4591674804688	407.1713562011719	-565.030517578125	756.7769165039062	433.6611633300781	-630.385009765625	1555.842895507812	715.0398559570312	-805.4810791015625	1584.87255859375	626.661376953125	-687.7550659179688	1574.907836914062	595.4638671875	-780.4618530273438	1565.8134765625	772.5070190429688	-907.284423828125	960.6348266601562	816.3475952148438	-597.3193359375	908.3982543945312	638.859130859375	-709.2488403320312	923.7067260742188	551.4663696289062	-924.9794311523438	956.5313720703125	696.4905395507812	-1006.424072265625	488.1679382324219	655.634521484375	-987.146728515625	621.0783081054688	706.330322265625	-975.7678833007812	42.41350173950195	745.0664672851562	-1007.21728515625	253.413330078125	699.7952880859375	-1003.587158203125	44.81357955932617	522.1897583007812	-943.7591552734375	44.8223876953125	582.5763549804688	-1038.893310546875	41.19063949584961	633.7479858398438	-910.3639526367188	39.80627822875977	755.5699462890625	-714.799560546875	427.8537902832031	605.1527709960938	-677.1434326171875	676.5126953125	575.841064453125	-524.8126220703125	182.2325439453125	899.0198364257812	-685.3631591796875	326.1653747558594	673.1975708007812	-641.2855834960938	42.11099243164062	910.3314819335938	-548.8638305664062	99.35394287109375	886.2653198242188	-527.541015625	247.2097625732422	961.6474609375	-976.5955200195312	661.0462036132812	825.681640625	-631.2470703125	111.3957366943359	947.531494140625	nan	nan	nan	nan	nan	nan	nan	nan	nan	
170	1.69	-658.7160034179688	940.2958374023438	763.986328125	-772.8281860351562	951.4378662109375	832.8096923828125	-706.1534423828125	1029.3271484375	788.5724487304688	-810.3282470703125	1184.728515625	571.49658203125	-701.3672485351562	1130.143920898438	789.1055908203125	-710.7965087890625	1380.744506835938	762.42626953125	-780.3232421875	1304.110961914062	617.8837280273438	-637.0841064453125	1231.658325195312	770.6204223632812	-796.9658203125	1348.354370117188	822.10400390625	-879.4265747070312	1366.033325195312	767.9172973632812	-934.666259765625	1259.037475585938	832.7894897460938	-977.2670288085938	1064.175048828125	853.2356567382812	-897.29345703125	1041.130615234375	877.3243408203125	-983.1644287109375	841.738037109375	769.3712158203125	-1026.608520507812	839.4913940429688	839.7557373046875	-999.3006591796875	961.11279296875	852.5478515625	-1027.883422851562	753.2849731445312	837.2755737304688	-1011.930908203125	744.1697387695312	775.7887573242188	-597.2271728515625	1356.405029296875	640.9581909179688	-538.3177490234375	1290.152221679688	630.2276000976562	-505.9733581542969	1027.546875	604.2846069335938	-579.4017944335938	1015.348693847656	663.7760009765625	-622.0015869140625	858.244384765625	461.3346557617188	-550.247802734375	836.23681640625	462.1908264160156	-510.2483825683594	970.7987060546875	562.6228637695312	-638.3776245117188	690.8048706054688	412.3934326171875	-626.8349609375	762.9548950195312	408.9430236816406	-565.2657470703125	753.35546875	436.9517822265625	-637.4376220703125	1557.54443359375	708.80078125	-810.7098388671875	1586.736938476562	616.999755859375	-692.4937744140625	1576.648193359375	588.0992431640625	-788.5891723632812	1567.72998046875	763.3670043945312	-914.9733276367188	962.3001098632812	807.2291259765625	-602.384521484375	909.75830078125	633.5997924804688	-713.3419189453125	925.3292236328125	545.2933349609375	-931.1859130859375	957.65576171875	687.3967895507812	-1009.185668945312	487.2917785644531	652.081787109375	-991.2398071289062	621.1670532226562	701.1884765625	-975.7122192382812	42.53358840942383	745.0151977539062	-1008.382751464844	252.986572265625	698.264892578125	-1003.601928710938	44.83539581298828	522.1709594726562	-943.609130859375	44.73906707763672	582.5237426757812	-1038.818237304688	41.28181838989258	633.7298583984375	-910.336181640625	39.92464828491211	755.6253662109375	-727.0197143554688	430.8482666015625	587.6928100585938	-683.6089477539062	679.1218872070312	566.009765625	-541.439208984375	187.6907958984375	884.7031860351562	-699.2206420898438	329.4710388183594	656.2779541015625	-656.02392578125	44.7382926940918	888.6315307617188	-563.7567138671875	105.5382080078125	868.7764282226562	-546.2822875976562	251.0459442138672	948.7858276367188	-993.6254272460938	664.1843872070312	804.3204345703125	-648.1173706054688	114.3206253051758	928.3362426757812	nan	nan	nan	nan	nan	nan	nan	nan	nan	
